Patient4_TMGait_0pt3_03_left_32_GRF.mot
version=1
nRows=52
nColumns=19
inDegrees=no
endheader
time	F1x	F1y	F1z	M1x	M1y	M1z	F2x	F2y	F2z	M2x	M2y	M2z	EC1x	EC1y	EC1z	EC2x	EC2y	EC2z
56.87	-7.8103	11.5481	3.219	-3.7001	-5.5918	9.7007	-23.1375	760.8078	-46.7178	267.9258	55.0492	749.9962	-0.0592	0.0182	-0.0073	-0.0462	0.0165	0.9585
56.8883	-5.8427	7.9092	2.3043	-2.5399	-4.1099	6.6723	-23.0172	779.783	-47.5415	274.2194	55.7912	766.9838	-0.0592	0.0182	-0.0073	-0.0462	0.0165	0.9585
56.9066	-3.9708	4.6462	1.4607	-1.4904	-2.7257	3.954	-23.1468	801.3564	-48.3979	281.4694	56.5334	785.9047	-0.0592	0.0182	-0.0073	-0.0462	0.0165	0.9585
56.9249	-2.4103	2.0524	0.77816	-0.65023	-1.5903	1.7983	-23.3549	823.9583	-49.1199	289.1595	57.0467	805.1738	-0.0592	0.0182	-0.0073	-0.0462	0.0165	0.9585
56.9431	-1.2364	0.19255	0.28438	-0.045228	-0.75465	0.25112	-23.3626	845.7544	-49.539	296.6625	57.0783	822.9795	-0.0592	0.0182	-0.0073	-0.0462	0.0165	0.9585
56.9614	-0.43895	-1.0066	-0.033341	0.34537	-0.20524	-0.75366	-22.9107	864.7085	-49.5289	303.262	56.4301	837.377	-0.0592	0.0182	-0.0073	-0.0462	0.0165	0.9585
56.9797	0.035707	-1.6934	-0.20543	0.56797	0.10251	-1.3321	-21.8174	878.7361	-49.017	308.2089	54.9891	846.4439	-0.0592	0.0182	-0.0073	-0.0462	0.0165	0.9585
56.998	0.25227	-2.0395	-0.26655	0.67795	0.22261	-1.6247	-19.991	886.0326	-47.9893	310.8432	52.7352	848.5802	-0.0592	0.0182	-0.0073	-0.0462	0.0165	0.9585
57.0163	0.27708	-2.2068	-0.25154	0.73002	0.20861	-1.7724	-17.4273	885.4434	-46.4865	310.7306	49.7355	842.8436	-0.0592	0.0182	-0.0073	-0.0462	0.0165	0.9585
57.0346	0.17064	-2.3405	-0.19193	0.77604	0.10859	-1.9065	-14.1743	876.7474	-44.5981	307.7662	46.1233	829.1992	-0.0592	0.0182	-0.0073	-0.0462	0.0165	0.9585
57.0529	-0.019446	-2.5624	-0.11304	0.86031	-0.038078	-2.1415	-10.3217	860.716	-42.465	302.1987	42.0936	808.5474	-0.0592	0.0182	-0.0073	-0.0462	0.0165	0.9585
57.0711	-0.25414	-2.9688	-0.037511	1.0182	-0.19716	-2.5681	-5.9955	838.9417	-40.2716	294.5706	37.8861	782.5439	-0.0592	0.0182	-0.0073	-0.0462	0.0165	0.9585
57.0894	-0.49081	-3.6188	0.015161	1.2711	-0.33397	-3.2406	-1.3535	813.5412	-38.2136	285.6137	33.7515	753.3055	-0.0592	0.0182	-0.0073	-0.0462	0.0165	0.9585
57.1077	-0.673	-4.5198	0.030348	1.6206	-0.41261	-4.1677	3.4288	786.8448	-36.4612	276.1426	29.9132	723.1066	-0.0592	0.0182	-0.0073	-0.0462	0.0165	0.9585
57.126	-0.72725	-5.5973	-0.0026004	2.0382	-0.395	-5.2751	8.1629	761.1221	-35.1308	266.9597	26.5433	694.1255	-0.0592	0.0182	-0.0073	-0.0462	0.0165	0.9585
57.1443	-0.56162	-6.6702	-0.092201	2.4567	-0.23627	-6.384	12.6684	738.3487	-34.2716	258.7727	23.7465	668.2229	-0.0592	0.0182	-0.0073	-0.0462	0.0165	0.9585
57.1626	-0.063669	-7.4225	-0.24876	2.7539	0.12086	-7.1879	16.8019	720.0062	-33.8757	252.1197	21.5584	646.7651	-0.0592	0.0182	-0.0073	-0.0462	0.0165	0.9585
57.1809	0.89043	-7.367	-0.48287	2.7373	0.739	-7.2112	20.446	706.8915	-33.8997	247.2967	19.9712	630.4707	-0.0592	0.0182	-0.0073	-0.0462	0.0165	0.9585
57.1991	2.42	-5.816	-0.79807	2.1363	1.6691	-5.7641	23.4948	698.9916	-34.2907	244.3061	18.9656	619.3189	-0.0592	0.0182	-0.0073	-0.0462	0.0165	0.9585
57.2174	4.6081	-1.8779	-1.1824	0.6029	2.9299	-1.9473	25.8616	695.5389	-34.9939	242.8746	18.5139	612.6118	-0.0592	0.0182	-0.0073	-0.0462	0.0165	0.9585
57.2357	7.4436	5.4838	-1.5977	-2.2646	4.4766	5.2955	27.4831	695.2058	-35.9359	242.5244	18.5663	609.1665	-0.0592	0.0182	-0.0073	-0.0462	0.0165	0.9585
57.254	10.7341	17.2989	-1.9649	-6.8626	6.1522	17.0334	28.3141	696.3546	-37.0167	242.6658	19.0467	607.5332	-0.0592	0.0182	-0.0073	-0.0462	0.0165	0.9585
57.2723	14.0004	34.3146	-2.151	-13.4736	7.6309	34.0662	28.3421	697.3094	-38.1059	242.6952	19.8437	606.2281	-0.0592	0.0182	-0.0073	-0.0462	0.0165	0.9585
57.2906	16.3459	56.6305	-1.9789	-22.1241	8.3797	56.563	27.6144	696.5509	-39.0497	242.0694	20.8067	603.899	-0.0592	0.0182	-0.0073	-0.0462	0.0165	0.9585
57.3089	16.7377	83.5385	-1.2508	-32.5221	7.7906	83.9101	26.2582	692.8244	-39.7018	240.3495	21.7627	599.4129	-0.0592	0.0182	-0.0073	-0.0462	0.0165	0.9585
57.3271	14.9114	113.9643	0.19683	-44.2255	5.5827	115.119	24.4683	685.1968	-39.9485	237.2218	22.5431	591.905	-0.0592	0.0182	-0.0073	-0.0462	0.0165	0.9585
57.3454	11.2349	146.3265	2.4892	-56.5966	1.7574	148.6122	22.4596	672.9843	-39.725	232.4684	23.0197	580.7225	-0.0592	0.0182	-0.0073	-0.0462	0.0165	0.9585
57.3637	6.3304	178.2478	5.5844	-68.7129	-3.4076	181.951	20.4149	655.7597	-39.0109	225.9657	23.1155	565.4354	-0.0592	0.0182	-0.0073	-0.0462	0.0165	0.9585
57.382	0.97595	207.0615	9.0406	-79.5812	-9.1436	212.352	18.4751	633.5933	-37.842	217.7628	22.8169	546.0377	-0.0592	0.0182	-0.0073	-0.0462	0.0165	0.9585
57.4003	-4.0807	230.9503	12.2037	-88.5545	-14.4699	237.8477	16.7546	607.267	-36.3248	208.1525	22.1793	523.1202	-0.0592	0.0182	-0.0073	-0.0462	0.0165	0.9585
57.4186	-8.4558	249.8486	14.6563	-95.6402	-18.8013	258.2969	15.3405	578.2136	-34.6138	197.6487	21.303	497.8279	-0.0592	0.0182	-0.0073	-0.0462	0.0165	0.9585
57.4369	-12.1379	265.2383	16.257	-101.4151	-21.9894	275.1975	14.2829	548.1452	-32.8424	186.8584	20.2816	471.5546	-0.0592	0.0182	-0.0073	-0.0462	0.0165	0.9585
57.4551	-15.251	279.2152	17.1207	-106.6694	-24.2005	290.6757	13.5955	518.6071	-31.071	176.3286	19.1637	445.5792	-0.0592	0.0182	-0.0073	-0.0462	0.0165	0.9585
57.4734	-17.8993	293.5957	17.5469	-112.0719	-25.7751	306.545	13.2546	490.6936	-29.3184	166.4467	17.9762	420.83	-0.0592	0.0182	-0.0073	-0.0462	0.0165	0.9585
57.4917	-20.1446	309.5096	17.8705	-118.0254	-27.0671	323.8981	13.2024	464.9464	-27.6122	157.4019	16.7599	397.7944	-0.0592	0.0182	-0.0073	-0.0462	0.0165	0.9585
57.51	-22.0234	327.3928	18.3546	-124.6732	-28.3484	343.0926	13.3659	441.3743	-25.9951	149.1915	15.5682	376.5231	-0.0592	0.0182	-0.0073	-0.0462	0.0165	0.9585
57.5283	-23.5571	347.2102	19.1507	-131.9904	-29.773	363.9898	13.6796	419.525	-24.491	141.6505	14.4344	356.6859	-0.0592	0.0182	-0.0073	-0.0462	0.0165	0.9585
57.5466	-24.7427	368.7752	20.3252	-139.9036	-31.4005	386.2944	14.097	398.6055	-23.0761	134.498	13.3456	337.6721	-0.0592	0.0182	-0.0073	-0.0462	0.0165	0.9585
57.5649	-25.5595	391.9799	21.9193	-148.3716	-33.261	409.794	14.588	377.6656	-21.6819	127.4016	12.2505	318.74	-0.0592	0.0182	-0.0073	-0.0462	0.0165	0.9585
57.5831	-26.0027	416.8686	23.9452	-157.4126	-35.3645	434.4524	15.115	355.776	-20.2259	120.0351	11.089	299.1607	-0.0592	0.0182	-0.0073	-0.0462	0.0165	0.9585
57.6014	-26.1101	443.6035	26.3658	-167.0929	-37.6885	460.3887	15.5968	332.1605	-18.6452	112.1219	9.8299	278.3289	-0.0592	0.0182	-0.0073	-0.0462	0.0165	0.9585
57.6197	-25.9281	472.3103	29.1254	-177.4678	-40.1924	487.7091	15.8986	306.2822	-16.9165	103.4644	8.4916	255.8321	-0.0592	0.0182	-0.0073	-0.0462	0.0165	0.9585
57.638	-25.465	502.903	32.1756	-188.5166	-42.8259	516.3143	15.8566	277.9162	-15.06	93.9705	7.1398	231.5076	-0.0592	0.0182	-0.0073	-0.0462	0.0165	0.9585
57.6563	-24.6947	534.9816	35.4611	-200.1084	-45.5196	545.8003	15.3182	247.2154	-13.1311	83.6767	5.866	205.4899	-0.0592	0.0182	-0.0073	-0.0462	0.0165	0.9585
57.6746	-23.5706	567.8576	38.8883	-212.0126	-48.1613	575.4878	14.1879	214.7523	-11.2067	72.7652	4.7627	178.2397	-0.0592	0.0182	-0.0073	-0.0462	0.0165	0.9585
57.6929	-22.0285	600.631	42.3121	-223.9282	-50.5839	604.5059	12.4626	181.5056	-9.3681	61.5611	3.8972	150.5321	-0.0592	0.0182	-0.0073	-0.0462	0.0165	0.9585
57.7111	-20.0209	632.2552	45.558	-235.499	-52.6061	631.86	10.2454	148.7643	-7.6836	50.5018	3.2904	123.3842	-0.0592	0.0182	-0.0073	-0.0462	0.0165	0.9585
57.7294	-17.561	661.6172	48.4599	-246.3411	-54.078	656.5148	7.7368	117.9087	-6.1921	40.0602	2.9062	97.8804	-0.0592	0.0182	-0.0073	-0.0462	0.0165	0.9585
57.7477	-14.731	687.6788	50.8867	-256.0917	-54.9085	677.5518	5.1799	90.1166	-4.8986	30.6433	2.6697	74.9487	-0.0592	0.0182	-0.0073	-0.0462	0.0165	0.9585
57.766	-11.6701	709.6595	52.7687	-264.4693	-55.087	694.335	2.7967	66.158	-3.7842	22.5202	2.4993	55.1928	-0.0592	0.0182	-0.0073	-0.0462	0.0165	0.9585
57.7843	-8.5721	727.196	54.1124	-271.3299	-54.692	706.6449	0.76657	46.3507	-2.828	15.8044	2.3281	38.8598	-0.0592	0.0182	-0.0073	-0.0462	0.0165	0.9585
57.8026	-5.6678	740.4903	54.9919	-276.7255	-53.8749	714.7991	-0.77388	30.6408	-2.0149	10.4786	2.1075	25.8972	-0.0592	0.0182	-0.0073	-0.0462	0.0165	0.9585
